<svg xmlns="http://www.w3.org/2000/svg" xmlns:xlink="http://www.w3.org/1999/xlink" xmlns:dojoxdiagram="http://dojotoolkit.org/dojox/sketch" width="2000" height="1000"><g><image xlink:href="images/figure.gif" x="0" y="0" width="2000" height="1000" /><g id="item-1" dojoxdiagram:type="Rectangle" transform="translate(133.57983193277312,45.613445378151255)"><rect style="stroke:blue;stroke-weight:2;fill:#def;" x="-68" width="209.1764705882353" y="8" height="149.98319327731093"  /><text style="fill:blue;text-anchor:end" font-weight="bold" x="36.58823529411765" y="82.99159663865547">rect-1</text></g><g id="item-2" dojoxdiagram:type="Triangle" transform="translate(150.13445378151255,495.0168067226891)"><path style="stroke:blue;stroke-width:2;fill:none;" d="M-99,-4 Q194,-2 42.32773109243698,-185.65546218487395" /><text style="fill:blue;text-anchor:middle" font-weight="bold" x="47.5" y="-93.82773109243698">triangle-1</text></g><g id="item-3" dojoxdiagram:type="RoundRect" transform="translate(531.7058823529412,36.99159663865544)"><rect style="stroke:blue;stroke-weight:2;fill:#def;" x="0" width="290.03361344537814" y="0" height="159.12605042016807" rx="15" ry="15"  /><text style="fill:blue;text-anchor:end" font-weight="bold" x="145.01680672268907" y="79.56302521008404">round-rect-1</text></g><g id="item-4" dojoxdiagram:type="Ellipse" transform="translate(366,228)"><ellipse style="stroke:blue;stroke-weight:1;fill:none;" cx="098" cy="073" rx="98" ry="73"  /><text style="fill:blue;text-anchor:end" font-weight="bold" x="98" y="73">ellipse-1</text></g><g id="item-5" dojoxdiagram:type="Circle" transform="translate(642,278)"><circle style="stroke:blue;stroke-weight:1;fill:none;" cx="1893.5" cy="093.5" r="93.5"  /><text style="fill:blue;text-anchor:end" font-weight="bold" x="111.5" y="93.5">circle-1</text></g><g id="item-6" dojoxdiagram:type="Connector" transform="translate(170.16806722689077,128.60504201680672)"><line style="stroke:blue;stroke-width:2;fill:none;" d="M0,0 506.55462184873954,-12.050420168067248" /><defs id-start="item-1" id-end="item-3"  /><text style="fill:blue;text-anchor:middle" font-weight="bold" x="253.27731092436977" y="-6.025210084033624">item-6</text></g><g id="item-7" dojoxdiagram:type="Connector" transform="translate(195.9103641456582,431.1316526610645)"><line style="stroke:blue;stroke-width:2;fill:none;" d="M0,0 268.0896358543418,-130.1316526610645" /><defs id-start="item-2" id-end="item-4"  /><text style="fill:blue;text-anchor:middle" font-weight="bold" x="134.0448179271709" y="-65.06582633053225">item-7</text></g></g></svg>