<svg xmlns="http://www.w3.org/2000/svg" xmlns:xlink="http://www.w3.org/1999/xlink" xmlns:dojoxdiagram="http://dojotoolkit.org/dojox/sketch" width="1600" height="1000"><g><image xlink:href="images/figure.gif" x="0" y="0" width="1600" height="1000" /><g id="item-1" dojoxdiagram:type="Rectangle" transform="translate(111.57983193277312,10.613445378151254)"><rect style="stroke:blue;stroke-weight:2;fill:#def;" x="-68" width="209.1764705882353" y="8" height="149.98319327731093" rx="1" ry="1"  /><g transform="translate(-68,8) rotate(0)"><path style="fill:blue;" d="M0,0 l20,-5, -3,5, 3,5 Z" /></g><text style="fill:blue;text-anchor:end" font-weight="bold" x="36.58823529411765" y="82.99159663865546">rectangle-1</text></g><g id="item-2" dojoxdiagram:type="RoundRect" transform="translate(274.7058823529412,68.99159663865544)"><rect style="stroke:blue;stroke-weight:1;fill:none;" x="0" width="290.03361344537813" y="0" height="159.12605042016807" rx="15" ry="15"  /><g transform="translate(0,0) rotate(0)"><path style="fill:blue;" d="M0,0 l20,-5, -3,5, 3,5 Z" /></g><text style="fill:blue;text-anchor:end" font-weight="bold" x="145.01680672268907" y="79.56302521008403">round-rect-1</text></g><g id="item-3" dojoxdiagram:type="Ellipse" transform="translate(84,219)"><ellipse style="stroke:blue;stroke-weight:1;fill:none;" x="0" width="183" y="0" height="133"  /><g transform="translate(0,0) rotate(0)"><path style="fill:blue;" d="M0,0 l20,-5, -3,5, 3,5 Z" /></g><text style="fill:blue;text-anchor:end" font-weight="bold" x="91.5" y="66.5">item-3</text></g><g id="item-4" dojoxdiagram:type="Ellipse" transform="translate(1585,199)"><ellipse style="stroke:blue;stroke-weight:1;fill:none;" x="0" width="5" y="0" height="169"  /><g transform="translate(0,0) rotate(0)"><path style="fill:blue;" d="M0,0 l20,-5, -3,5, 3,5 Z" /></g><text style="fill:blue;text-anchor:end" font-weight="bold" x="2.5" y="84.5">item-4</text></g></g></svg>